# xmcd
#
# Track frame offsets:
#	150
#	12848
#	31073
#	43341
#	57100
#	72501
#	85684
#	101226
#	115777
#	134691
#	150642
#	164020
#	180704
#	192062
#	205472
#
# Disc length: 2930 seconds
#
# Revision: 1
# Processed by: cddbd v1.5PL3 Copyright (c) Steve Scherf et al.
# Submitted via: audiograbber 1.82.01
#
DISCID=d20b700f
DTITLE=Rockin' The Joint - Crazy Crazy Party!!
DYEAR=2001
DGENRE=Rock and Roll
TTITLE0=Crazy Crazy Party
TTITLE1=Nervous
TTITLE2=Paralysed
TTITLE3=Bloodshot Eyes
TTITLE4=Marie Marie
TTITLE5=Ain't Misbehavin'
TTITLE6=True Love
TTITLE7=Ain't Got a Thing
TTITLE8=Buona Sera
TTITLE9=Mais Qui
TTITLE10=You Made Me Blue
TTITLE11=Sure Like The Look In Your Eyes
TTITLE12=45 Men In A Telephone Booth
TTITLE13=Corrine Corrina
TTITLE14=Old Back Joe
EXTD=
EXTT0=
EXTT1=
EXTT2=
EXTT3=
EXTT4=
EXTT5=
EXTT6=
EXTT7=
EXTT8=
EXTT9=
EXTT10=
EXTT11=
EXTT12=
EXTT13=
EXTT14=
PLAYORDER=
